<svg width="133" height="38" viewBox="0 0 133 38" fill="none" xmlns="http://www.w3.org/2000/svg">
<path d="M132.989 5.70982L116.952 13.0558V7.75344L132.989 0.40625V5.70982Z" fill="#EC742C"/>
<path d="M123.914 18.0774L110.332 8.28328V2.98047L123.914 12.7748V18.0774Z" fill="#F89732"/>
<path d="M116.95 7.75586H103.944V13.0587H116.95V7.75586Z" fill="#44C5E2"/>
<path d="M116.952 13.0609L108.957 16.9046V11.6022L116.952 7.7583V13.0609Z" fill="#149CC5"/>
<path d="M10.3278 27.8982C10.3278 27.1222 10.2051 26.4964 9.98433 26.0207C9.73901 25.5451 9.39557 25.1446 8.95401 24.8693C8.48791 24.5939 7.94821 24.3937 7.31039 24.2685C6.67257 24.1684 5.96116 24.1183 5.15162 24.1183C4.31755 24.1183 3.72879 24.0682 3.36082 23.9681C2.99285 23.893 2.74753 23.7428 2.62487 23.5676C2.50222 23.2922 2.45315 22.9168 2.45315 22.3911V21.9906C2.45315 21.565 2.57581 21.2146 2.82112 20.9893C3.04191 20.764 3.38535 20.6388 3.80239 20.6388H6.45179C6.91789 20.6388 7.26133 20.739 7.45758 20.9392C7.65383 21.1395 7.77649 21.4649 7.80102 21.9405C7.82556 22.316 7.97274 22.6164 8.21806 22.7916C8.46338 22.9919 8.73322 23.092 9.00307 23.092C9.32198 23.092 9.59182 22.9919 9.86167 22.7666C10.107 22.5663 10.2296 22.2659 10.2296 21.8654C10.2296 21.2897 10.1315 20.789 9.9598 20.3384C9.76355 19.8879 9.4937 19.4873 9.15026 19.1619C8.80682 18.8365 8.41431 18.5862 7.94821 18.411C7.48211 18.2357 6.99148 18.1606 6.45179 18.1606H3.80239C3.28722 18.1606 2.79659 18.2608 2.33049 18.436C1.8644 18.6112 1.44736 18.8866 1.10392 19.212C0.760477 19.5374 0.49063 19.9379 0.294378 20.4135C0.0981262 20.8892 0 21.4148 0 21.9906V22.3911C0 23.2672 0.122657 23.9931 0.367973 24.5188C0.588756 25.0695 0.932198 25.4951 1.3983 25.7955C1.83986 26.1209 2.37956 26.3211 3.01738 26.4213C3.6552 26.5464 4.36661 26.5965 5.15162 26.5965C6.08382 26.5965 6.74617 26.6466 7.11414 26.7467C7.48211 26.8718 7.72743 26.997 7.80102 27.1722C7.82556 27.2724 7.85009 27.4225 7.87462 27.6478C7.89915 27.8731 7.89915 28.1234 7.89915 28.3487V28.8494C7.87462 28.9996 7.87462 29.0747 7.87462 29.0997C7.87462 30.0259 7.43305 30.5015 6.52538 30.5015H3.80239C2.94378 30.5015 2.47768 30.0509 2.45315 29.1498C2.42862 28.7493 2.30596 28.4489 2.06065 28.2486C1.7908 28.0484 1.52095 27.9482 1.22658 27.9482C0.858603 27.9482 0.564225 28.0734 0.343441 28.2987C0.122658 28.524 0 28.8243 0 29.1998V29.2499C0.0245315 29.8256 0.122658 30.3513 0.343441 30.8019C0.539693 31.2775 0.80954 31.653 1.15298 31.9784C1.49642 32.3038 1.88893 32.5291 2.35503 32.7043C2.82113 32.8796 3.28722 32.9797 3.80239 32.9797H6.52538C7.06508 32.9797 7.58024 32.8796 8.04634 32.7043C8.51244 32.5291 8.90494 32.2538 9.24838 31.9283C9.56729 31.6029 9.83714 31.1774 10.0334 30.7018C10.2296 30.2262 10.3278 29.7005 10.3278 29.0997V27.8982Z" fill="black"/>
<path d="M21.4897 26.2464H16.0928V25.971C16.0928 25.0699 16.5344 24.6193 17.442 24.6193H20.1405C21.0482 24.6193 21.4897 25.0699 21.4897 25.971V26.2464ZM23.9429 25.921C23.9429 25.2952 23.8448 24.7194 23.673 24.2438C23.5013 23.7682 23.256 23.3927 22.9371 23.0673C22.6182 22.7669 22.2257 22.5416 21.7841 22.3664C21.3425 22.2162 20.8765 22.1411 20.3613 22.1411H17.442C16.9269 22.1411 16.4362 22.2162 15.9701 22.3914C15.504 22.5667 15.087 22.842 14.7436 23.1674C14.4001 23.4929 14.1303 23.9184 13.934 24.394C13.7378 24.8696 13.6396 25.4203 13.6396 26.0211V29.1001C13.6396 29.7008 13.7378 30.2515 13.934 30.7271C14.1303 31.2028 14.4001 31.6283 14.7436 31.9537C15.087 32.2791 15.504 32.5295 15.9701 32.7047C16.4362 32.8799 16.9269 32.98 17.442 32.98H20.3613C20.9255 32.98 21.4897 32.8799 22.0049 32.7047C22.5201 32.5044 22.9862 32.0539 23.4032 31.378C23.4523 31.2779 23.5013 31.1777 23.5259 31.0776C23.5504 30.9524 23.5504 30.8523 23.5504 30.7522V30.6771C23.5259 30.3266 23.4032 30.0513 23.1824 29.826C22.9616 29.6007 22.6918 29.5006 22.3974 29.5006C22.2257 29.5006 22.0294 29.5256 21.8577 29.6007C21.6615 29.6758 21.4897 29.801 21.3671 29.9762C21.2444 30.1514 21.0972 30.2766 20.901 30.3517C20.7293 30.4518 20.4349 30.5019 20.0914 30.5019H17.442C16.5344 30.5019 16.0928 30.0262 16.0928 29.1001V28.7246H22.2257C22.6427 28.7246 23.0107 28.5744 23.3787 28.249C23.7466 27.9235 23.9429 27.498 23.9429 26.9473V25.921Z" fill="black"/>
<path d="M34.9814 29.2002C34.9814 30.1264 34.5399 30.602 33.6322 30.602H30.9337C30.0261 30.602 29.5845 30.1264 29.5845 29.2002V26.0211C29.5845 25.0949 30.0261 24.6443 30.9337 24.6443L33.6322 24.6193C34.5399 24.6193 34.9814 25.0949 34.9814 26.0211V29.2002ZM37.4346 33.5558V26.0211C37.4346 25.4203 37.3365 24.8696 37.1402 24.394C36.944 23.9184 36.6741 23.5179 36.3552 23.1674C36.0118 22.842 35.6193 22.5667 35.1532 22.3914C34.6871 22.2162 34.1719 22.1411 33.6322 22.1411H30.9337C30.4186 22.1411 29.9279 22.2162 29.4618 22.3914C28.9957 22.5667 28.6032 22.842 28.2598 23.1674C27.9164 23.4929 27.6465 23.9184 27.4503 24.394C27.2295 24.8696 27.1313 25.4203 27.1313 26.0211V29.2002C27.1313 29.801 27.2295 30.3517 27.4503 30.8273C27.6465 31.3029 27.9164 31.7284 28.2598 32.0539C28.6032 32.3793 28.9957 32.6296 29.4618 32.8048C29.9279 32.98 30.4186 33.0802 30.9337 33.0802H33.6322C33.8775 33.0802 34.1228 33.0551 34.3436 33.0051C34.5644 32.98 34.7852 32.9049 34.9814 32.8048V33.5558C34.9814 33.9062 34.8342 34.2567 34.5399 34.5821C34.221 34.9075 33.7549 35.0827 33.0925 35.0827C32.1358 35.0827 31.4244 35.0577 30.9583 35.0327C30.4922 35.0076 30.1487 34.9576 29.9034 34.8825C29.8298 34.8575 29.7808 34.8575 29.7317 34.8324H29.56C29.192 34.8324 28.8976 34.9576 28.7014 35.2329C28.4806 35.5083 28.3825 35.8087 28.3825 36.1341C28.3825 36.3844 28.4561 36.6097 28.6032 36.835C28.7504 37.0603 28.9957 37.2105 29.3147 37.2856C29.7317 37.4107 30.2469 37.4858 30.8111 37.5109C31.3753 37.5359 32.1358 37.5609 33.0925 37.5609C33.6813 37.5609 34.2455 37.4608 34.7852 37.2605C35.3003 37.0603 35.7664 36.7849 36.159 36.4345C36.5515 36.084 36.8704 35.6585 37.0912 35.1578C37.3119 34.6822 37.4346 34.1315 37.4346 33.5558Z" fill="black"/>
<path d="M48.4736 26.2464H43.0767V25.971C43.0767 25.0699 43.5183 24.6193 44.4259 24.6193H47.1244C48.0321 24.6193 48.4736 25.0699 48.4736 25.971V26.2464ZM50.9268 25.921C50.9268 25.2952 50.8287 24.7194 50.6569 24.2438C50.4852 23.7682 50.2399 23.3927 49.921 23.0673C49.6021 22.7669 49.2096 22.5416 48.768 22.3664C48.3264 22.2162 47.8603 22.1411 47.3452 22.1411H44.4259C43.9108 22.1411 43.4201 22.2162 42.954 22.3914C42.4879 22.5667 42.0709 22.842 41.7275 23.1674C41.384 23.4929 41.1142 23.9184 40.9179 24.394C40.7217 24.8696 40.6235 25.4203 40.6235 26.0211V29.1001C40.6235 29.7008 40.7217 30.2515 40.9179 30.7271C41.1142 31.2028 41.384 31.6283 41.7275 31.9537C42.0709 32.2791 42.4879 32.5295 42.954 32.7047C43.4201 32.8799 43.9108 32.98 44.4259 32.98H47.3452C47.9094 32.98 48.4736 32.8799 48.9888 32.7047C49.504 32.5044 49.97 32.0539 50.3871 31.378C50.4361 31.2779 50.4852 31.1777 50.5097 31.0776C50.5343 30.9524 50.5343 30.8523 50.5343 30.7522V30.6771C50.5097 30.3266 50.3871 30.0513 50.1663 29.826C49.9455 29.6007 49.6757 29.5006 49.3813 29.5006C49.2096 29.5006 49.0133 29.5256 48.8416 29.6007C48.6453 29.6758 48.4736 29.801 48.351 29.9762C48.2283 30.1514 48.0811 30.2766 47.8849 30.3517C47.7131 30.4518 47.4188 30.5019 47.0753 30.5019H44.4259C43.5183 30.5019 43.0767 30.0262 43.0767 29.1001V28.7246H49.2096C49.6266 28.7246 49.9946 28.5744 50.3626 28.249C50.7305 27.9235 50.9268 27.498 50.9268 26.9473V25.921Z" fill="black"/>
<path d="M64.6641 26.0211C64.6641 25.4204 64.5659 24.8697 64.3697 24.394C64.1734 23.9184 63.9036 23.5179 63.5847 23.1675C63.2412 22.842 62.8487 22.5667 62.3826 22.3915C61.9165 22.2162 61.4014 22.1411 60.8617 22.1411H58.1632C57.8688 22.1411 57.5745 22.1662 57.3046 22.2413C57.0102 22.3164 56.7404 22.4165 56.5196 22.5417C56.2988 22.2162 56.0045 22.041 55.5874 22.041C55.2685 22.041 54.9987 22.1411 54.7533 22.3414C54.4835 22.5667 54.3608 22.8671 54.3608 23.2926V31.8286C54.3608 32.2541 54.4835 32.5545 54.7533 32.7548C54.9987 32.9801 55.2685 33.0802 55.5874 33.0802C55.9063 33.0802 56.1762 32.9801 56.446 32.7548C56.6913 32.5545 56.814 32.2541 56.814 31.8286V26.0211C56.814 25.0949 57.2556 24.6444 58.1632 24.6444L60.8617 24.6193C61.7694 24.6193 62.2109 25.0949 62.2109 26.0211V31.8036C62.2109 32.2291 62.3336 32.5295 62.6034 32.7298C62.8487 32.955 63.1186 33.0552 63.4375 33.0552C63.7564 33.0552 64.0263 32.955 64.2961 32.7298C64.5414 32.5295 64.6641 32.2291 64.6641 31.8036V26.0211Z" fill="black"/>
<path d="M78.279 27.8986C78.279 27.1226 78.1563 26.4968 77.9355 26.0212C77.6902 25.5456 77.3468 25.1451 76.9052 24.8698C76.4391 24.5944 75.8994 24.3941 75.2616 24.269C74.6238 24.1689 73.9123 24.1188 73.1028 24.1188C72.2687 24.1188 71.68 24.0687 71.312 23.9686C70.944 23.8935 70.6987 23.7433 70.5761 23.5681C70.4534 23.2927 70.4043 22.9172 70.4043 22.3916V21.9911C70.4043 21.5655 70.527 21.2151 70.7723 20.9898C70.9931 20.7645 71.3365 20.6393 71.7536 20.6393H74.403C74.8691 20.6393 75.2125 20.7394 75.4088 20.9397C75.605 21.14 75.7277 21.4654 75.7522 21.941C75.7767 22.3165 75.9239 22.6169 76.1692 22.7921C76.4146 22.9923 76.6844 23.0925 76.9543 23.0925C77.2732 23.0925 77.543 22.9923 77.8129 22.7671C78.0582 22.5668 78.1808 22.2664 78.1808 21.8659C78.1808 21.2902 78.0827 20.7895 77.911 20.3389C77.7147 19.8884 77.4449 19.4878 77.1014 19.1624C76.758 18.837 76.3655 18.5867 75.8994 18.4115C75.4333 18.2362 74.9427 18.1611 74.403 18.1611H71.7536C71.2384 18.1611 70.7478 18.2613 70.2817 18.4365C69.8156 18.6117 69.3985 18.8871 69.0551 19.2125C68.7116 19.5379 68.4418 19.9384 68.2456 20.414C68.0493 20.8896 67.9512 21.4153 67.9512 21.9911V22.3916C67.9512 23.2677 68.0738 23.9936 68.3191 24.5193C68.5399 25.07 68.8834 25.4956 69.3495 25.7959C69.791 26.1214 70.3307 26.3216 70.9686 26.4217C71.6064 26.5469 72.3178 26.597 73.1028 26.597C74.035 26.597 74.6973 26.647 75.0653 26.7472C75.4333 26.8723 75.6786 26.9975 75.7522 27.1727C75.7767 27.2728 75.8013 27.423 75.8258 27.6483C75.8503 27.8736 75.8503 28.1239 75.8503 28.3492V28.8499C75.8258 29.0001 75.8258 29.0752 75.8258 29.1002C75.8258 30.0264 75.3842 30.502 74.4766 30.502H71.7536C70.895 30.502 70.4289 30.0514 70.4043 29.1503C70.3798 28.7497 70.2571 28.4494 70.0118 28.2491C69.742 28.0488 69.4721 27.9487 69.1777 27.9487C68.8098 27.9487 68.5154 28.0739 68.2946 28.2992C68.0738 28.5244 67.9512 28.8248 67.9512 29.2003V29.2504C67.9757 29.8261 68.0738 30.3518 68.2946 30.8024C68.4909 31.278 68.7607 31.6535 69.1042 31.9789C69.4476 32.3043 69.8401 32.5296 70.3062 32.7048C70.7723 32.88 71.2384 32.9802 71.7536 32.9802H74.4766C75.0163 32.9802 75.5314 32.88 75.9975 32.7048C76.4636 32.5296 76.8561 32.2542 77.1996 31.9288C77.5185 31.6034 77.7883 31.1779 77.9846 30.7022C78.1808 30.2266 78.279 29.701 78.279 29.1002V27.8986Z" fill="black"/>
<path d="M89.4409 29.1251C89.4409 30.0513 88.9993 30.5269 88.0917 30.5269H85.3932C84.4855 30.5269 84.044 30.0513 84.044 29.1251V26.0211C84.044 25.0949 84.4855 24.6443 85.3932 24.6443L88.0917 24.6193C88.9993 24.6193 89.4409 25.0949 89.4409 26.0211V29.1251ZM91.8941 26.0211C91.8941 25.4203 91.7959 24.8696 91.5997 24.394C91.4034 23.9184 91.1336 23.5179 90.8147 23.1674C90.4712 22.842 90.0787 22.5667 89.6126 22.3914C89.1465 22.2162 88.6314 22.1411 88.0917 22.1411H85.3932C84.878 22.1411 84.3874 22.2162 83.9213 22.3914C83.4552 22.5667 83.0627 22.842 82.7193 23.1674C82.3758 23.4929 82.106 23.9184 81.9097 24.394C81.689 24.8696 81.5908 25.4203 81.5908 26.0211V29.1251C81.5908 29.7259 81.689 30.2766 81.9097 30.7522C82.106 31.2278 82.3758 31.6533 82.7193 31.9788C83.0627 32.3042 83.4552 32.5545 83.9213 32.7297C84.3874 32.9049 84.878 33.0051 85.3932 33.0051H88.0917C88.6314 33.0051 89.1465 32.9049 89.6126 32.7297C90.0787 32.5545 90.4712 32.3042 90.8147 31.9537C91.1336 31.6283 91.4034 31.2028 91.5997 30.7271C91.7959 30.2515 91.8941 29.7259 91.8941 29.1251V26.0211Z" fill="black"/>
<path d="M99.0079 31.1028C98.8852 30.9025 98.6889 30.7523 98.4682 30.6772C98.3946 30.6522 98.3455 30.6271 98.2964 30.6021C98.2228 30.6021 98.1493 30.5771 98.0757 30.552C98.0021 30.527 97.9285 30.4269 97.8794 30.2517C97.8058 30.0764 97.7813 29.776 97.7813 29.3505V19.0122C97.7813 18.5867 97.6586 18.2863 97.3888 18.086C97.1189 17.8858 96.8491 17.7856 96.5547 17.7856C96.2603 17.7856 95.9905 17.8858 95.7206 18.086C95.4508 18.2863 95.3281 18.5867 95.3281 19.0122V29.726C95.3281 30.3268 95.4017 30.8024 95.5244 31.1778C95.647 31.5533 95.7942 31.8788 95.9905 32.1541C96.2603 32.5046 96.6774 32.7549 97.1925 32.9301C97.4133 33.0052 97.6832 33.0302 98.0021 33.0302C98.321 33.0302 98.6154 32.9051 98.8607 32.6547C99.0815 32.4295 99.2041 32.1291 99.2041 31.8037C99.2041 31.5283 99.1305 31.303 99.0079 31.1028Z" fill="black"/>
<path d="M109.483 29.2252C109.483 29.5506 109.409 29.851 109.262 30.0763C109.09 30.3016 108.722 30.4268 108.133 30.4268H105.214C104.895 30.4268 104.625 30.3767 104.454 30.2766C104.282 30.1764 104.184 29.9762 104.184 29.6758C104.184 29.3504 104.282 29.1501 104.503 29.075C104.724 28.9999 104.92 28.9499 105.141 28.9248L108.673 28.5744C108.845 28.5493 108.992 28.5243 109.115 28.4742C109.237 28.4492 109.36 28.3992 109.483 28.3741V29.2252ZM112.942 31.2779C112.868 31.1277 112.77 30.9775 112.647 30.8523C112.525 30.7271 112.402 30.602 112.328 30.5269C112.255 30.4518 112.181 30.3767 112.132 30.2766C112.083 30.2015 112.058 30.1013 112.034 29.9762C112.009 29.851 112.009 29.7008 112.009 29.4755V25.9961C112.009 25.4203 111.911 24.8947 111.74 24.419C111.543 23.9434 111.273 23.5429 110.955 23.1925C110.636 22.867 110.243 22.5917 109.777 22.4165C109.311 22.2412 108.796 22.1411 108.256 22.1411H105.68C105.067 22.1411 104.454 22.2663 103.865 22.4916C103.252 22.7169 102.761 23.1674 102.393 23.8433C102.27 24.0936 102.197 24.2939 102.197 24.5192C102.197 24.8696 102.344 25.17 102.614 25.3953C102.884 25.6206 103.178 25.7457 103.497 25.7457C103.889 25.7457 104.233 25.5205 104.527 25.0949C104.601 24.9697 104.748 24.8696 104.944 24.7695C105.116 24.6694 105.41 24.6193 105.803 24.6193H108.256C108.575 24.6193 108.845 24.6694 109.041 24.7695C109.237 24.8947 109.36 25.0949 109.409 25.3703C109.409 25.3953 109.409 25.4454 109.434 25.4954C109.434 25.5455 109.434 25.5956 109.409 25.6206C109.335 25.6957 109.286 25.7958 109.237 25.8709C109.164 25.946 108.968 26.0211 108.649 26.0461C108.084 26.1212 107.569 26.1713 107.103 26.2464C106.686 26.2965 106.294 26.3465 105.926 26.3966C105.533 26.4466 105.239 26.4717 105.067 26.4967C104.576 26.5718 104.135 26.6469 103.718 26.7721C103.301 26.8972 102.957 27.0975 102.663 27.3228C102.344 27.5481 102.123 27.8735 101.951 28.249C101.78 28.6495 101.682 29.1501 101.682 29.7259C101.682 30.3767 101.804 30.9024 102.05 31.3279C102.27 31.7535 102.589 32.1039 102.957 32.3292C103.325 32.5795 103.718 32.7548 104.184 32.8298C104.625 32.93 105.067 32.98 105.484 32.98H108.182C108.6 32.98 108.992 32.93 109.311 32.8549C109.63 32.7798 109.973 32.6046 110.292 32.3793C110.66 32.8048 111.151 33.0301 111.74 33.0301C112.058 33.0301 112.353 32.9049 112.623 32.6797C112.893 32.4544 113.015 32.1289 113.015 31.7535C113.015 31.6033 112.991 31.4531 112.942 31.2779Z" fill="black"/>
<path d="M122.557 22.5669C122.361 22.2916 122.042 22.1414 121.625 22.1414H119.663C119.368 22.1414 119.074 22.1664 118.804 22.1914C118.51 22.2415 118.215 22.3416 117.946 22.5169C117.847 22.3917 117.725 22.2916 117.578 22.2165C117.406 22.1414 117.259 22.0913 117.087 22.0913C116.719 22.0913 116.425 22.2165 116.204 22.4418C115.983 22.667 115.86 22.9674 115.86 23.3429V31.8038C115.86 32.1042 115.958 32.3795 116.179 32.6549C116.376 32.9302 116.67 33.0554 117.087 33.0554C117.455 33.0554 117.774 32.9302 117.995 32.7049C118.215 32.4797 118.314 32.1793 118.314 31.8038V25.9963C118.314 25.0701 118.755 24.6196 119.663 24.6196H121.625C122.042 24.6196 122.337 24.4944 122.557 24.2441C122.754 23.9687 122.852 23.6934 122.852 23.393C122.852 23.1176 122.754 22.8423 122.557 22.5669Z" fill="black"/>
</svg>
