<svg width="375" height="100" viewBox="0 0 375 100" fill="none" xmlns="http://www.w3.org/2000/svg">
<rect width="375" height="100" fill="#E5F4F9"/>
<mask id="mask0_823_1062" style="mask-type:alpha" maskUnits="userSpaceOnUse" x="0" y="0" width="375" height="100">
<rect width="375" height="100" fill="url(#paint0_linear_823_1062)"/>
</mask>
<g mask="url(#mask0_823_1062)">
<path fill-rule="evenodd" clip-rule="evenodd" d="M249.493 73.9957C249.271 74.0213 249.046 74.0345 248.818 74.0345C245.605 74.0345 243 71.4299 243 68.2169C243 65.004 245.605 62.3994 248.818 62.3994C249.122 62.3994 249.421 62.4227 249.712 62.4678C250.909 60.3434 253.187 58.9088 255.799 58.9088C257.223 58.9088 258.548 59.3353 259.652 60.0677C261.316 57.6174 264.18 56 267.434 56C272.568 56 276.731 60.0267 276.742 64.9978H276.742C279.227 64.9978 281.241 67.012 281.241 69.4967C281.241 71.9814 279.227 73.9956 276.742 73.9957L276.742 73.9957H268.303C268.017 74.0214 267.727 74.0345 267.434 74.0345C267.141 74.0345 266.851 74.0214 266.565 73.9957H249.493Z" fill="url(#paint1_linear_823_1062)"/>
<path fill-rule="evenodd" clip-rule="evenodd" d="M122.139 62.502C121.554 62.5697 120.959 62.6044 120.356 62.6044C111.875 62.6044 105 55.7292 105 47.2482C105 38.7672 111.875 31.8919 120.356 31.8919C121.16 31.8919 121.948 31.9536 122.718 32.0725C125.878 26.4651 131.889 22.6782 138.784 22.6782C142.543 22.6782 146.04 23.8041 148.955 25.7372C153.347 19.2695 160.907 15 169.496 15C183.048 15 194.038 25.6289 194.066 38.7509H194.066C200.625 38.7509 205.942 44.0677 205.942 50.6264C205.942 57.1851 200.625 62.5019 194.066 62.5019C194.066 62.5019 194.066 62.5019 194.066 62.5019L194.066 62.502H171.79C171.035 62.5698 170.27 62.6044 169.496 62.6044C168.723 62.6044 167.958 62.5698 167.203 62.502H122.139Z" fill="url(#paint2_linear_823_1062)"/>
<path fill-rule="evenodd" clip-rule="evenodd" d="M359.294 40.0154C359.461 40.0154 359.625 39.995 359.784 39.9541C360.349 39.8087 360.633 39.4583 360.884 39.1496C361.085 38.9017 361.275 38.6676 361.613 38.5235C362.259 38.2478 362.844 38.5559 363.52 38.9121C364.175 39.2564 364.917 39.6474 365.772 39.4431C366.81 39.1952 367.205 38.2994 367.586 37.433C367.931 36.6514 368.256 35.9131 369.027 35.6327C369.906 35.3132 370.765 35.8142 371.675 36.345C372.669 36.9247 373.697 37.524 374.842 37.0919C375.802 36.7301 376.216 35.8644 376.581 35.1007C376.913 34.4062 377.2 33.8069 377.809 33.6458C378.661 33.4195 379.847 34.1466 381.238 35.7456C381.348 35.8713 381.538 35.8843 381.663 35.7754C381.789 35.6659 381.802 35.4758 381.693 35.3501C380.097 33.5149 378.776 32.7666 377.655 33.0629C376.776 33.2953 376.401 34.0806 376.037 34.8404C375.69 35.5661 375.362 36.2515 374.63 36.5278C373.752 36.8587 372.891 36.3563 371.979 35.8243C370.989 35.2466 369.965 34.6494 368.821 35.0663C367.808 35.4348 367.397 36.3674 367.035 37.1902C366.683 37.9888 366.379 38.6782 365.632 38.8567C364.997 39.0083 364.416 38.7024 363.801 38.3786C363.091 38.0053 362.286 37.5811 361.377 37.9689C360.901 38.1716 360.643 38.4896 360.415 38.7699C360.187 39.0515 360.006 39.2744 359.634 39.37C359.041 39.5225 358.32 39.2611 357.491 38.5929C357.361 38.4878 357.171 38.5085 357.067 38.6382C356.962 38.7681 356.983 38.9576 357.112 39.0621C357.899 39.6962 358.63 40.0154 359.294 40.0154Z" fill="#E8E8E8"/>
<g opacity="0.6">
<path fill-rule="evenodd" clip-rule="evenodd" d="M149.797 64.0361L149.08 244.937L111.078 271.716C110.93 271.82 110.68 271.747 110.68 271.601V83.7114C110.68 83.7114 149.249 64.0555 149.797 64.0361Z" fill="#ACD6E3"/>
<path fill-rule="evenodd" clip-rule="evenodd" d="M111.116 83.9786V271.156L148.646 244.71L149.359 64.6972C145.324 66.5856 121.071 78.9057 111.116 83.9786ZM110.913 272.2C110.795 272.2 110.676 272.173 110.572 272.119C110.366 272.012 110.244 271.818 110.244 271.601V83.7116C110.244 83.5476 110.335 83.3974 110.483 83.3233C128.117 74.3364 149.249 63.6194 149.782 63.6006C149.898 63.5858 150.016 63.6401 150.102 63.7232C150.185 63.8054 150.234 63.919 150.234 64.038L149.516 244.939C149.516 245.081 149.447 245.212 149.332 245.294L111.328 272.072C111.207 272.158 111.06 272.2 110.913 272.2Z" fill="#FFECEC"/>
<path fill-rule="evenodd" clip-rule="evenodd" d="M113.946 267.843L114.904 83.1007L22.1133 33.0776L-68.8159 84.871L-64.7736 270.737C-64.7197 273.264 -62.9119 275.276 -60.713 275.253L109.025 273.549C111.75 273.522 113.946 270.975 113.946 267.843Z" fill="#ACD6E3"/>
<path fill-rule="evenodd" clip-rule="evenodd" d="M-68.3745 85.1215L-64.3373 270.727C-64.2893 273.003 -62.6679 274.823 -60.7173 274.817L109.021 273.113C111.496 273.09 113.51 270.725 113.51 267.843C113.51 267.841 113.51 267.841 113.51 267.841L114.468 83.3604L22.1191 33.5762L-68.3745 85.1215ZM-60.7479 275.689C-63.1541 275.689 -65.1514 273.482 -65.2095 270.747L-69.2518 84.8806C-69.2556 84.7205 -69.1709 84.5714 -69.0319 84.4921L21.8981 32.6985C22.028 32.6245 22.1869 32.6224 22.3206 32.6939L115.111 82.7169C115.253 82.7931 115.342 82.9417 115.34 83.1026L114.382 267.845C114.38 271.202 111.981 273.956 109.029 273.985L-60.7084 275.689C-60.7216 275.689 -60.7352 275.689 -60.7479 275.689Z" fill="#E5F4F9"/>
<path fill-rule="evenodd" clip-rule="evenodd" d="M5.46673 92.7773C4.94108 92.7773 4.51331 93.2052 4.51331 93.7313V115.062C4.51331 115.588 4.94108 116.016 5.46673 116.016H21.7621C22.2874 116.016 22.7157 115.588 22.7157 115.062V93.7313C22.7157 93.2052 22.2874 92.7773 21.7621 92.7773H5.46673ZM21.7621 116.888H5.46673C4.46001 116.888 3.64111 116.069 3.64111 115.062V93.7313C3.64111 92.7246 4.46001 91.9053 5.46673 91.9053H21.7621C22.7681 91.9053 23.5879 92.7246 23.5879 93.7313V115.062C23.5879 116.069 22.7681 116.888 21.7621 116.888Z" fill="#E5F4F9"/>
<path fill-rule="evenodd" clip-rule="evenodd" d="M27.9839 92.7773C27.3811 92.7773 26.8908 93.2678 26.8908 93.8714V114.921C26.8908 115.525 27.3811 116.016 27.9839 116.016H43.9975C44.6022 116.016 45.0926 115.525 45.0926 114.921V93.8714C45.0926 93.2678 44.6022 92.7773 43.9975 92.7773H27.9839ZM43.9975 116.888H27.9839C26.9004 116.888 26.0186 116.006 26.0186 114.921V93.8714C26.0186 92.7872 26.9004 91.9053 27.9839 91.9053H43.9975C45.0829 91.9053 45.9648 92.7872 45.9648 93.8714V114.921C45.9648 116.006 45.0829 116.888 43.9975 116.888Z" fill="#E5F4F9"/>
<path fill-rule="evenodd" clip-rule="evenodd" d="M63.087 92.9872C62.5618 92.9872 62.1334 93.4148 62.1334 93.9407V115.272C62.1334 115.798 62.5618 116.226 63.087 116.226H79.3836C79.9089 116.226 80.3372 115.798 80.3372 115.272V93.9407C80.3372 93.4148 79.9089 92.9872 79.3836 92.9872H63.087ZM79.3836 117.098H63.087C62.0811 117.098 61.2612 116.278 61.2612 115.272V93.9407C61.2612 92.9341 62.0811 92.1152 63.087 92.1152H79.3836C80.3896 92.1152 81.2075 92.9341 81.2075 93.9407V115.272C81.2075 116.278 80.3896 117.098 79.3836 117.098Z" fill="#E5F4F9"/>
<path fill-rule="evenodd" clip-rule="evenodd" d="M85.6035 92.9872C85.0008 92.9872 84.5104 93.4778 84.5104 94.0814V115.131C84.5104 115.735 85.0008 116.226 85.6035 116.226H101.619C102.222 116.226 102.712 115.735 102.712 115.131V94.0814C102.712 93.4778 102.222 92.9872 101.619 92.9872H85.6035ZM101.619 117.098H85.6035C84.5201 117.098 83.6382 116.216 83.6382 115.131V94.0814C83.6382 92.9971 84.5201 92.1152 85.6035 92.1152H101.619C102.703 92.1152 103.584 92.9971 103.584 94.0814V115.131C103.584 116.216 102.703 117.098 101.619 117.098Z" fill="#E5F4F9"/>
<path fill-rule="evenodd" clip-rule="evenodd" d="M23.9566 60.7289C19.3301 60.7289 15.5641 64.4941 15.5641 69.1222C15.5641 73.7505 19.3301 77.5155 23.9566 77.5155C28.5851 77.5155 32.351 73.7505 32.351 69.1222C32.351 64.4941 28.5851 60.7289 23.9566 60.7289ZM23.9566 78.3877C18.8474 78.3877 14.6919 74.2312 14.6919 69.1222C14.6919 64.0133 18.8474 59.8569 23.9566 59.8569C29.0658 59.8569 33.2232 64.0133 33.2232 69.1222C33.2232 74.2312 29.0658 78.3877 23.9566 78.3877Z" fill="#F9F6F1"/>
<path fill-rule="evenodd" clip-rule="evenodd" d="M24.6035 29.3398L73.2316 20.0515C73.8615 19.9313 74.5128 20.0228 75.0865 20.312L163.553 65.0103C165.136 65.9221 164.968 68.2592 163.27 68.9346L126.312 86.2269L24.6035 29.3398Z" fill="#D5EDF5"/>
<path fill-rule="evenodd" clip-rule="evenodd" d="M-73.6811 87.2206L24.8191 44.8547L118.53 88.4306C119.637 88.9458 120.916 88.9396 122.019 88.4138L134.284 82.564L24.6039 29.3398L-82.4184 81.1524C-83.1266 81.4953 -83.2049 82.4733 -82.5603 82.9247L-76.8944 86.8907C-75.9529 87.5499 -74.737 87.6747 -73.6811 87.2206Z" fill="#CBE9F3"/>
<path fill-rule="evenodd" clip-rule="evenodd" d="M130.19 82.1399C130.126 82.1399 130.059 82.1253 129.997 82.0939L28.0713 31.2359C27.8561 31.1285 27.7689 30.8667 27.8755 30.6512C27.9841 30.4362 28.2457 30.3467 28.4609 30.4558L130.386 81.3138C130.601 81.4212 130.689 81.683 130.582 81.8985C130.504 82.0513 130.351 82.1399 130.19 82.1399Z" fill="white"/>
<path fill-rule="evenodd" clip-rule="evenodd" d="M130.018 76.5943L43.6177 32.1526L75.4627 25.0771L154.786 64.3076L130.018 76.5943Z" fill="white"/>
<path fill-rule="evenodd" clip-rule="evenodd" d="M57.2431 39.5492C57.0512 39.5492 56.8748 39.4211 56.8225 39.2259C56.7605 38.9935 56.8981 38.7541 57.1307 38.6921L86.737 30.7514C86.9696 30.6874 87.208 30.8268 87.27 31.0596C87.3321 31.2922 87.1944 31.5313 86.9618 31.5935L57.3555 39.5343C57.3187 39.5445 57.2799 39.5492 57.2431 39.5492Z" fill="#C3E2EC"/>
<path fill-rule="evenodd" clip-rule="evenodd" d="M70.3805 46.2158C70.1983 46.2158 70.0277 46.1012 69.9676 45.9194C69.8901 45.6913 70.0122 45.4438 70.2409 45.3668L97.159 36.2678C97.3877 36.1892 97.6338 36.313 97.7114 36.5411C97.7889 36.7695 97.6668 37.017 97.4381 37.0939L70.52 46.1929C70.4735 46.2086 70.4251 46.2158 70.3805 46.2158Z" fill="#C3E2EC"/>
<path fill-rule="evenodd" clip-rule="evenodd" d="M83.516 52.784C83.3435 52.784 83.1807 52.6811 83.1128 52.5108C83.0217 52.2877 83.1303 52.0334 83.3532 51.9436L108.94 41.6497C109.164 41.5612 109.418 41.6681 109.508 41.8916C109.597 42.1147 109.488 42.369 109.265 42.4589L83.6788 52.7526C83.6265 52.7738 83.5703 52.784 83.516 52.784Z" fill="#C3E2EC"/>
<path fill-rule="evenodd" clip-rule="evenodd" d="M95.7713 58.9601C95.6065 58.9601 95.4476 58.866 95.3739 58.7061C95.2731 58.4877 95.37 58.229 95.5871 58.128L119.763 46.9915C119.982 46.8902 120.241 46.9865 120.342 47.2053C120.443 47.4237 120.346 47.6827 120.129 47.7837L95.9534 58.9199C95.8934 58.9473 95.8313 58.9601 95.7713 58.9601Z" fill="#C3E2EC"/>
<path fill-rule="evenodd" clip-rule="evenodd" d="M108.124 65.2341C107.961 65.2341 107.806 65.1434 107.73 64.9875C107.626 64.7706 107.717 64.5101 107.934 64.4055L131.815 52.8773C132.032 52.7732 132.292 52.8628 132.396 53.0802C132.501 53.2971 132.41 53.5576 132.193 53.6625L108.312 65.1907C108.252 65.2199 108.188 65.2341 108.124 65.2341Z" fill="#C3E2EC"/>
<path fill-rule="evenodd" clip-rule="evenodd" d="M137.631 72.7824C137.561 72.7824 137.491 72.7663 137.427 72.7322L56.0589 29.7936C55.8457 29.6812 55.7643 29.4172 55.8767 29.2042C55.9891 28.9913 56.2527 28.9099 56.4659 29.022L137.834 71.9606C138.048 72.073 138.129 72.337 138.017 72.55C137.937 72.6981 137.786 72.7824 137.631 72.7824Z" fill="#C3E2EC"/>
<path fill-rule="evenodd" clip-rule="evenodd" d="M147.237 67.9786C147.171 67.9786 147.105 67.9639 147.041 67.9317L66.7522 27.3463C66.537 27.2377 66.4517 26.9753 66.5603 26.7603C66.6688 26.5458 66.9305 26.4593 67.1456 26.5679L147.435 67.1535C147.65 67.262 147.735 67.5243 147.626 67.7394C147.551 67.8914 147.398 67.9786 147.237 67.9786Z" fill="#C3E2EC"/>
<path fill-rule="evenodd" clip-rule="evenodd" d="M118.613 70.6256C118.45 70.6256 118.293 70.5347 118.22 70.3783C118.115 70.1612 118.206 69.9005 118.423 69.7967L142.736 58.1311C142.953 58.0266 143.213 58.1183 143.318 58.3354C143.422 58.5524 143.329 58.8131 143.112 58.917L118.801 70.5828C118.739 70.6121 118.675 70.6256 118.613 70.6256Z" fill="#C3E2EC"/>
<path fill-rule="evenodd" clip-rule="evenodd" d="M44.8913 32.3127L130.088 75.6835L153.79 64.3031L75.0151 25.5248L44.8913 32.3127ZM130.082 76.6057C130.014 76.6057 129.946 76.59 129.884 76.5586L43.4201 32.5418C43.2554 32.4582 43.1624 32.2811 43.1837 32.0989C43.2069 31.9167 43.3426 31.768 43.5209 31.7275L74.9744 24.6404C75.0713 24.6177 75.1741 24.6305 75.2632 24.6743L154.978 63.9164C155.13 63.9902 155.223 64.143 155.223 64.3098C155.223 64.4769 155.126 64.6285 154.975 64.7008L130.272 76.5629C130.212 76.5914 130.148 76.6057 130.082 76.6057Z" fill="#C3E2EC"/>
</g>
<circle cx="257" cy="6.48861" r="12.2791" fill="url(#paint3_linear_823_1062)"/>
<path d="M257 21.8374V29.0002" stroke="url(#paint4_linear_823_1062)" stroke-linecap="round"/>
<path d="M235 7H242.163" stroke="url(#paint5_linear_823_1062)" stroke-linecap="round"/>
<path d="M271.837 7H279" stroke="url(#paint6_linear_823_1062)" stroke-linecap="round"/>
<path d="M241.444 22.5566L246.509 17.4918" stroke="url(#paint7_linear_823_1062)" stroke-linecap="round"/>
<path d="M272.557 22.5566L267.492 17.4918" stroke="url(#paint8_linear_823_1062)" stroke-linecap="round"/>
</g>
<defs>
<linearGradient id="paint0_linear_823_1062" x1="187.5" y1="0" x2="187.5" y2="100" gradientUnits="userSpaceOnUse">
<stop stop-color="#FBFEFF"/>
<stop offset="1" stop-color="white"/>
</linearGradient>
<linearGradient id="paint1_linear_823_1062" x1="262.12" y1="56" x2="262.12" y2="74.0345" gradientUnits="userSpaceOnUse">
<stop stop-color="#DFEDF2"/>
<stop offset="1" stop-color="#D8EBF1"/>
</linearGradient>
<linearGradient id="paint2_linear_823_1062" x1="155.471" y1="15" x2="155.471" y2="62.6044" gradientUnits="userSpaceOnUse">
<stop stop-color="#DFEDF2"/>
<stop offset="1" stop-color="#D8EBF1"/>
</linearGradient>
<linearGradient id="paint3_linear_823_1062" x1="257" y1="-5.79053" x2="257" y2="18.7677" gradientUnits="userSpaceOnUse">
<stop stop-color="white"/>
<stop offset="1" stop-color="#FFE7C0"/>
</linearGradient>
<linearGradient id="paint4_linear_823_1062" x1="257.5" y1="21.8374" x2="257.5" y2="29.0002" gradientUnits="userSpaceOnUse">
<stop stop-color="#FDF6EA"/>
<stop offset="1" stop-color="#FFDBA3"/>
</linearGradient>
<linearGradient id="paint5_linear_823_1062" x1="235" y1="6.5" x2="242.163" y2="6.5" gradientUnits="userSpaceOnUse">
<stop stop-color="#FDF6EA"/>
<stop offset="1" stop-color="#FFDBA3"/>
</linearGradient>
<linearGradient id="paint6_linear_823_1062" x1="271.837" y1="6.5" x2="279" y2="6.5" gradientUnits="userSpaceOnUse">
<stop stop-color="#FDF6EA"/>
<stop offset="1" stop-color="#FFDBA3"/>
</linearGradient>
<linearGradient id="paint7_linear_823_1062" x1="241.09" y1="22.2031" x2="246.155" y2="17.1382" gradientUnits="userSpaceOnUse">
<stop stop-color="#FDF6EA"/>
<stop offset="1" stop-color="#FFDBA3"/>
</linearGradient>
<linearGradient id="paint8_linear_823_1062" x1="272.91" y1="22.2031" x2="267.845" y2="17.1382" gradientUnits="userSpaceOnUse">
<stop stop-color="#FDF6EA"/>
<stop offset="1" stop-color="#FFDBA3"/>
</linearGradient>
</defs>
</svg>
